  <svg
                    width="98"
                    height="48"
                    viewBox="0 0 98 48"
                    fill="none"
                    xmlns="http://www.w3.org/2000/svg"
                  >
                    <path
                      d="M44.3041 22.9575V7.87408H47.4423V22.9575H44.3041ZM49.4748 22.9575V7.87408H55.6702C58.7881 7.87408 61.0152 9.53427 61.0152 12.6927C61.0152 14.7578 60.0029 16.2155 58.4034 16.9444L61.8453 22.9575H58.3224L55.2652 17.491H52.613V22.9575H49.4748ZM52.613 14.7578H55.6904C57.0064 14.7578 57.877 13.9277 57.877 12.6927C57.877 11.4374 57.0064 10.6073 55.6904 10.6073H52.613V14.7578ZM71.3466 7.87408L76.4891 22.9575H73.1688L72.1565 19.8801H66.3863L65.374 22.9575H62.0536L67.1961 7.87408H71.3466ZM67.2771 17.1469H71.2656L69.2815 11.0325L67.2771 17.1469ZM86.6053 7.87408H89.7435V22.9575H87.3139L80.5314 13.8265V22.9575H77.3933V7.87408H79.8026L86.6053 16.9444V7.87408ZM91.7776 22.9575V7.87408H94.9157V22.9575H91.7776ZM44.4054 41.9575V38.9206H47.4423V41.9575H44.4054ZM59.8385 33.8185C61.1748 34.7296 61.5392 35.9444 61.5392 37.2604C61.5392 40.2366 59.4538 41.9575 55.9512 41.9575H49.5737V26.8741H55.9512C59.0692 26.8741 60.9116 28.514 60.9116 31.2878C60.9116 32.2191 60.5876 33.0897 59.8385 33.8185ZM52.7118 29.5061V32.543H56.174C57.1458 32.543 57.7734 31.9356 57.7734 31.0246C57.7734 30.1135 57.1458 29.5061 56.174 29.5061H52.7118ZM56.3157 39.2243C57.5709 39.2243 58.401 38.4347 58.401 37.2604C58.401 36.0659 57.5709 35.2763 56.3157 35.2763H52.7118V39.2243H56.3157ZM62.9496 41.9575V26.8741H66.0878V41.9575H62.9496ZM75.6114 42.2005C71.056 42.2005 67.6142 38.8396 67.6142 34.4057C67.6142 29.9718 71.0358 26.6311 75.6114 26.6311C80.1871 26.6311 83.6087 29.9718 83.6087 34.4057C83.6087 38.8396 80.1668 42.2005 75.6114 42.2005ZM75.6114 39.366C78.3649 39.366 80.4705 37.3211 80.4705 34.4057C80.4705 31.4902 78.3649 29.4656 75.6114 29.4656C72.8579 29.4656 70.7523 31.4902 70.7523 34.4057C70.7523 37.3211 72.8579 39.366 75.6114 39.366Z"
                      fill="#C7C7C7"
                    />
                    <path
                      fillRule="evenodd"
                      clipRule="evenodd"
                      d="M23.8742 18.9039C25.5644 16.7724 26.7439 14.2895 27.3239 11.6421L31.2684 12.4875C30.5592 15.7249 29.1169 18.761 27.05 21.3675C24.9831 23.974 22.3455 26.0829 19.3356 27.5356C17.4485 28.4464 15.4459 29.0843 13.3891 29.4353L16.3418 40.3348C16.6949 41.6383 18.0495 42.4118 19.3674 42.0626C20.6853 41.7133 21.4674 40.3735 21.1142 39.07L20.1624 35.5565C20.1607 35.5569 20.159 35.5574 20.1573 35.5578L20.0419 35.1115L19.3492 32.5548L19.3785 32.5471L19.157 31.6904C21.8521 31.0084 24.3522 29.7216 26.4633 27.9296L29.0918 30.9589C27.5412 32.2751 25.8191 33.3684 23.9767 34.2125L25.0128 38.0368C25.9428 41.4699 23.883 44.9986 20.412 45.9185C16.9411 46.8384 13.3733 44.801 12.4433 41.368L9.29644 29.752C6.0762 29.705 2.90343 28.9639 0 27.5786L1.75362 23.9831C4.22039 25.1601 6.92492 25.7685 9.66372 25.7624C12.4025 25.7563 15.1042 25.1359 17.5656 23.948C20.027 22.76 22.184 21.0354 23.8742 18.9039Z"
                      fill="#C7C7C7"
                    />
                    <path
                      fillRule="evenodd"
                      clipRule="evenodd"
                      d="M5.03516 11.0688L17.7992 7.64874L18.9205 11.8337C19.8185 15.185 17.8297 18.6298 14.4783 19.5277L7.78245 21.3219L5.03516 11.0688ZM9.54548 13.6729L10.3865 16.8116L14.1529 15.8024C15.193 15.5237 15.8102 14.4546 15.5315 13.4145L15.1951 12.1591L9.54548 13.6729Z"
                      fill="#C7C7C7"
                    />
                    <path
                      fillRule="evenodd"
                      clipRule="evenodd"
                      d="M4.41814 8.76721C3.76787 6.34038 5.20806 3.8459 7.63489 3.19563L19.5619 -0.000202635L20.646 4.04552C21.5749 7.51242 19.5175 11.076 16.0506 12.0049L6.00679 14.6961L4.41814 8.76721ZM7.75105 6.97708L8.61083 10.1858L15.5159 8.3356C16.7871 7.99498 17.5415 6.68835 17.2009 5.41715L16.9579 4.51012L7.75105 6.97708Z"
                      fill="#C7C7C7"
                    />
                  </svg>