<svg width="31" height="31" viewBox="0 0 31 31" fill="none" xmlns="http://www.w3.org/2000/svg">
<path fill-rule="evenodd" clip-rule="evenodd" d="M23 15.0248H9.367C10.273 13.6057 12.694 11.8687 14.524 10.8797C15.011 10.6177 15.191 10.0107 14.93 9.52574C14.667 9.04074 14.062 8.85674 13.575 9.12074C12.478 9.71174 7.005 12.8247 7 16.0228V16.0248V16.0268C7 19.2238 12.478 22.3368 13.575 22.9288C13.727 23.0108 13.889 23.0488 14.049 23.0488C14.404 23.0488 14.749 22.8588 14.93 22.5238C15.191 22.0388 15.011 21.4308 14.524 21.1698C12.693 20.1798 10.27 18.4428 9.365 17.0248H23C23.553 17.0248 24 16.5778 24 16.0248C24 15.4718 23.553 15.0248 23 15.0248Z" fill="black"/>
</svg>
