<svg width="31" height="31" viewBox="0 0 31 31" fill="none" xmlns="http://www.w3.org/2000/svg">
<path fillRule="evenodd" clipRule="evenodd" d="M24 16.0244C24 12.8265 18.523 9.71247 17.425 9.12047C16.938 8.85747 16.332 9.03947 16.07 9.52647C15.809 10.0115 15.989 10.6185 16.476 10.8805C18.307 11.8695 20.73 13.6065 21.635 15.0254H8C7.447 15.0254 7 15.4724 7 16.0254C7 16.5774 7.447 17.0254 8 17.0254H21.633C20.727 18.4444 18.306 20.1814 16.476 21.1694C15.989 21.4324 15.809 22.0384 16.07 22.5244C16.251 22.8594 16.596 23.0494 16.951 23.0494C17.111 23.0494 17.274 23.0114 17.425 22.9294C18.522 22.3374 23.995 19.2254 24 16.0274V16.0244Z" fill="black"/>
</svg>
